# xmcd CD database file
#
# Track frame offsets:
#	150
#	9100
#	20787
#	32225
#	45212
#	58537
#	68932
#	83725
#	93275
#	104087
#	115787
#	132850
#	145200
#	159132
#	170287
#	182007
#	205262
#
# Disc length: 3143 seconds
#
# Revision: 3
# Processed by: cddbd v1.4PL0 Copyright (c) Steve Scherf et al.
# Submitted via: CDex 1.50Beta7
#
DISCID=d60c4511
DTITLE=Various Artist - Early Days of Avanti
DYEAR=1998
DGENRE=Jazz
TTITLE0=Heart/Peggy Lee
TTITLE1=Somebody Loves You/Dean Martin
TTITLE2=Perfidia/Julie London
TTITLE3=Amor.Amor/Eve Boswell
TTITLE4=The Game Of Love/Nat King Cole
TTITLE5=Frenesi/Eydie Gorme
TTITLE6=Be-Bop The Beguine/Sammy Davis Jr
TTITLE7=A Lot Of Lovin' To Do/Nancy Wilson
TTITLE8=Call Me/The New Classic Singers
TTITLE9=Besame Mucho/Eve Boswell
TTITLE10=Lonely One/Nat King Cole Trio
TTITLE11=My One And Only Love/June Christy
TTITLE12=If Love Is Good To Me/Dean Martin
TTITLE13=Dance Only With Me/Peggy Lee
TTITLE14=Adios/Julie London
TTITLE15=The World Of Love/DAN SHIN-YA
TTITLE16=The World Of Love/Jake H. Concepcion
EXTD=YEAR: 1998
EXTT0=
EXTT1=
EXTT2=
EXTT3=
EXTT4=
EXTT5=
EXTT6=
EXTT7=
EXTT8=
EXTT9=
EXTT10=
EXTT11=
EXTT12=
EXTT13=
EXTT14=
EXTT15=
EXTT16=
PLAYORDER=
